%TF.GenerationSoftware,KiCad,Pcbnew,(6.0.6)*%
%TF.CreationDate,2022-07-24T16:53:50+02:00*%
%TF.ProjectId,emxr,656d7872-2e6b-4696-9361-645f70636258,rev?*%
%TF.SameCoordinates,Original*%
%TF.FileFunction,Legend,Bot*%
%TF.FilePolarity,Positive*%
%FSLAX46Y46*%
G04 Gerber Fmt 4.6, Leading zero omitted, Abs format (unit mm)*
G04 Created by KiCad (PCBNEW (6.0.6)) date 2022-07-24 16:53:50*
%MOMM*%
%LPD*%
G01*
G04 APERTURE LIST*
%ADD10C,0.150000*%
G04 APERTURE END LIST*
D10*
X119472703Y-68130952D02*
X120186989Y-68130952D01*
X120329846Y-68083333D01*
X120425084Y-67988095D01*
X120472703Y-67845238D01*
X120472703Y-67750000D01*
X120472703Y-69083333D02*
X120472703Y-68607142D01*
X119472703Y-68607142D01*
X120377465Y-69988095D02*
X120425084Y-69940476D01*
X120472703Y-69797619D01*
X120472703Y-69702380D01*
X120425084Y-69559523D01*
X120329846Y-69464285D01*
X120234608Y-69416666D01*
X120044132Y-69369047D01*
X119901275Y-69369047D01*
X119710799Y-69416666D01*
X119615561Y-69464285D01*
X119520323Y-69559523D01*
X119472703Y-69702380D01*
X119472703Y-69797619D01*
X119520323Y-69940476D01*
X119567942Y-69988095D01*
X119472703Y-70702380D02*
X120186989Y-70702380D01*
X120329846Y-70654761D01*
X120425084Y-70559523D01*
X120472703Y-70416666D01*
X120472703Y-70321428D01*
X120472703Y-71654761D02*
X120472703Y-71178571D01*
X119472703Y-71178571D01*
X120377465Y-72559523D02*
X120425084Y-72511904D01*
X120472703Y-72369047D01*
X120472703Y-72273809D01*
X120425084Y-72130952D01*
X120329846Y-72035714D01*
X120234608Y-71988095D01*
X120044132Y-71940476D01*
X119901275Y-71940476D01*
X119710799Y-71988095D01*
X119615561Y-72035714D01*
X119520323Y-72130952D01*
X119472703Y-72273809D01*
X119472703Y-72369047D01*
X119520323Y-72511904D01*
X119567942Y-72559523D01*
X119472703Y-73273809D02*
X120186989Y-73273809D01*
X120329846Y-73226190D01*
X120425084Y-73130952D01*
X120472703Y-72988095D01*
X120472703Y-72892857D01*
X120472703Y-74226190D02*
X120472703Y-73750000D01*
X119472703Y-73750000D01*
X120377465Y-75130952D02*
X120425084Y-75083333D01*
X120472703Y-74940476D01*
X120472703Y-74845238D01*
X120425084Y-74702380D01*
X120329846Y-74607142D01*
X120234608Y-74559523D01*
X120044132Y-74511904D01*
X119901275Y-74511904D01*
X119710799Y-74559523D01*
X119615561Y-74607142D01*
X119520323Y-74702380D01*
X119472703Y-74845238D01*
X119472703Y-74940476D01*
X119520323Y-75083333D01*
X119567942Y-75130952D01*
X119472703Y-75845238D02*
X120186989Y-75845238D01*
X120329846Y-75797619D01*
X120425084Y-75702380D01*
X120472703Y-75559523D01*
X120472703Y-75464285D01*
X120472703Y-76797619D02*
X120472703Y-76321428D01*
X119472703Y-76321428D01*
X120377465Y-77702380D02*
X120425084Y-77654761D01*
X120472703Y-77511904D01*
X120472703Y-77416666D01*
X120425084Y-77273809D01*
X120329846Y-77178571D01*
X120234608Y-77130952D01*
X120044132Y-77083333D01*
X119901275Y-77083333D01*
X119710799Y-77130952D01*
X119615561Y-77178571D01*
X119520323Y-77273809D01*
X119472703Y-77416666D01*
X119472703Y-77511904D01*
X119520323Y-77654761D01*
X119567942Y-77702380D01*
M02*
