M48
; DRILL file {KiCad (6.0.6)} date Sun 24 Jul 2022 05:01:08 PM CEST
; FORMAT={-:-/ absolute / inch / decimal}
; #@! TF.CreationDate,2022-07-24T17:01:08+02:00
; #@! TF.GenerationSoftware,Kicad,Pcbnew,(6.0.6)
; #@! TF.FileFunction,Plated,1,2,PTH
FMAT,2
INCH
; #@! TA.AperFunction,Plated,PTH,ViaDrill
T1C0.0157
; #@! TA.AperFunction,Plated,PTH,ComponentDrill
T2C0.0300
; #@! TA.AperFunction,Plated,PTH,ComponentDrill
T3C0.0315
; #@! TA.AperFunction,Plated,PTH,ComponentDrill
T4C0.0374
; #@! TA.AperFunction,Plated,PTH,ComponentDrill
T5C0.0394
; #@! TA.AperFunction,Plated,PTH,ComponentDrill
T6C0.1260
%
G90
G05
T1
X3.4162Y-4.7058
X3.4162Y-4.7653
X5.0292Y-5.1023
X5.0292Y-5.1692
X6.4997Y-3.4646
X6.5587Y-3.4646
X6.6664Y-4.7058
X6.7333Y-4.7058
X6.8492Y-3.6358
X6.9029Y-3.5921
X6.9097Y-4.071
X6.9687Y-4.0693
T2
X3.8056Y-2.6651
X3.8056Y-2.7651
X3.8056Y-2.8651
X4.3656Y-2.6651
X4.3656Y-2.7651
X4.3656Y-2.8651
T3
X3.104Y-3.6058
X3.104Y-4.0058
X3.1047Y-4.1074
X3.1047Y-4.5074
X3.1388Y-3.3957
X3.1465Y-4.7658
X3.174Y-3.2185
X3.2175Y-3.3957
X3.2253Y-4.7658
X3.244Y-3.6058
X3.244Y-4.0058
X3.244Y-4.1058
X3.244Y-4.5058
X3.394Y-3.4658
X3.394Y-3.6058
X3.394Y-3.7458
X3.3948Y-3.8858
X3.4932Y-3.8858
X3.5022Y-4.4094
X3.5356Y-4.915
X3.634Y-4.915
X3.6759Y-4.1732
X3.7022Y-4.4094
X3.764Y-4.5158
X3.764Y-4.9158
X3.774Y-3.2185
X3.794Y-3.4658
X3.794Y-3.6058
X3.794Y-3.7458
X3.8137Y-4.1732
X3.8148Y-3.8958
X3.884Y-3.0958
X3.884Y-3.2358
X3.904Y-4.5158
X3.904Y-4.9158
X3.9132Y-3.8958
X3.924Y-3.4058
X3.924Y-3.5458
X3.9456Y-2.8759
X3.9456Y-2.9743
X4.0067Y-3.7697
X4.0067Y-4.3209
X4.024Y-3.8958
X4.024Y-4.1958
X4.044Y-4.5158
X4.044Y-4.9158
X4.1051Y-3.7697
X4.1051Y-4.3209
X4.124Y-3.8958
X4.124Y-4.1958
X4.184Y-4.5158
X4.184Y-4.9158
X4.224Y-3.8958
X4.224Y-4.1958
X4.2248Y-3.7697
X4.2248Y-4.3209
X4.2256Y-2.8759
X4.2256Y-2.9743
X4.284Y-3.0958
X4.284Y-3.2358
X4.3232Y-3.7697
X4.3232Y-4.3209
X4.324Y-3.4058
X4.324Y-3.5458
X4.324Y-3.8958
X4.324Y-4.1958
X4.324Y-4.5158
X4.324Y-4.9158
X4.454Y-4.0966
X4.454Y-4.195
X4.5087Y-3.2386
X4.5087Y-3.8386
X4.6925Y-4.4685
X4.694Y-4.0531
X4.694Y-4.1909
X4.8925Y-4.4685
X5.0403Y-2.9996
X5.0403Y-3.3996
X5.0403Y-3.9096
X5.0403Y-4.3096
X5.1696Y-3.9096
X5.1696Y-4.3096
X5.1703Y-2.9996
X5.1703Y-3.3996
X5.2756Y-4.5472
X5.3296Y-2.9012
X5.3296Y-2.9996
X5.3346Y-4.2126
X5.3346Y-4.311
X5.35Y-3.4508
X5.35Y-3.5492
X5.3543Y-4.5472
X5.3733Y-2.6673
X5.4496Y-2.8904
X5.4496Y-3.0304
X5.4496Y-3.1604
X5.4496Y-3.2904
X5.452Y-2.6673
X5.4796Y-3.5504
X5.4796Y-3.8504
X5.4796Y-4.1204
X5.4796Y-4.2604
X5.4796Y-4.3904
X5.4796Y-4.5204
X5.4804Y-3.9804
X5.5788Y-3.9804
X5.5796Y-3.5504
X5.5796Y-3.8504
X5.5804Y-3.4204
X5.6788Y-3.4204
X5.6796Y-3.5504
X5.6796Y-3.8504
X5.7796Y-3.5504
X5.7796Y-3.8504
X5.8496Y-2.8904
X5.8496Y-3.0304
X5.8496Y-3.1604
X5.8496Y-3.2904
X5.8796Y-4.1204
X5.8796Y-4.2604
X5.8796Y-4.3904
X5.8796Y-4.5204
X5.9092Y-3.7516
X5.9092Y-3.85
X6.1192Y-3.1608
X6.1192Y-3.2908
X6.1192Y-4.1708
X6.1192Y-4.3102
X6.1196Y-3.4317
X6.1196Y-3.5104
X6.1196Y-4.4693
X6.1196Y-4.548
X6.5192Y-3.1608
X6.5192Y-3.2908
X6.5192Y-4.1708
X6.5192Y-4.3102
X6.7796Y-2.5604
X6.7796Y-3.8023
X6.8396Y-3.0604
X6.8396Y-3.3604
X6.8396Y-4.3023
X6.8396Y-4.6023
X6.8408Y-2.93
X6.8408Y-4.1719
X6.8504Y-2.7204
X6.8504Y-3.9272
X6.9392Y-2.93
X6.9392Y-4.1719
X6.9396Y-3.0604
X6.9396Y-3.3604
X6.9396Y-4.3023
X6.9396Y-4.6023
X6.9488Y-2.7204
X6.9488Y-3.9272
X7.0396Y-3.0604
X7.0396Y-3.3604
X7.0396Y-4.3023
X7.0396Y-4.6023
X7.04Y-3.49
X7.04Y-4.7319
X7.0416Y-2.93
X7.0416Y-4.1719
X7.1384Y-3.49
X7.1384Y-4.7319
X7.1396Y-3.0604
X7.1396Y-3.3604
X7.1396Y-4.3023
X7.1396Y-4.6023
X7.14Y-2.93
X7.14Y-4.1719
X7.1796Y-2.5604
X7.1796Y-3.8023
X7.3204Y-3.3504
X7.3204Y-4.5923
X7.3496Y-2.5604
X7.3496Y-2.9604
X7.3496Y-3.0793
X7.3496Y-3.158
X7.3496Y-3.8023
X7.3496Y-4.2023
X7.3496Y-4.3211
X7.3496Y-4.3999
X7.4188Y-3.3504
X7.4188Y-4.5923
X7.5296Y-2.5604
X7.5296Y-3.8023
X7.5504Y-2.7904
X7.5504Y-3.3504
X7.5504Y-4.0323
X7.5504Y-4.5923
X7.5592Y-2.9208
X7.5592Y-3.2208
X7.5592Y-4.1627
X7.5592Y-4.4627
X7.6488Y-2.7904
X7.6488Y-3.3504
X7.6488Y-4.0323
X7.6488Y-4.5923
X7.6592Y-2.9208
X7.6592Y-3.2208
X7.6592Y-4.1627
X7.6592Y-4.4627
X7.7592Y-2.9208
X7.7592Y-3.2208
X7.7592Y-4.1627
X7.7592Y-4.4627
X7.7604Y-3.3504
X7.7604Y-4.5923
X7.7612Y-2.7904
X7.7612Y-4.0323
X7.8588Y-3.3504
X7.8588Y-4.5923
X7.8592Y-2.9208
X7.8592Y-3.2208
X7.8592Y-4.1627
X7.8592Y-4.4627
X7.8596Y-2.7904
X7.8596Y-4.0323
X7.9296Y-2.5604
X7.9296Y-3.8023
X8.0096Y-2.7104
X8.0096Y-2.8504
X8.0096Y-2.9904
X8.0096Y-3.1304
X8.0096Y-3.2704
X8.0096Y-3.4004
X8.0096Y-3.5404
X8.0096Y-3.9523
X8.0096Y-4.0923
X8.0096Y-4.2323
X8.0096Y-4.3723
X8.0096Y-4.5123
X8.0096Y-4.6423
X8.0096Y-4.7823
X8.4096Y-2.7104
X8.4096Y-2.8504
X8.4096Y-2.9904
X8.4096Y-3.1304
X8.4096Y-3.2704
X8.4096Y-3.4004
X8.4096Y-3.5404
X8.4096Y-3.9523
X8.4096Y-4.0923
X8.4096Y-4.2323
X8.4096Y-4.3723
X8.4096Y-4.5123
X8.4096Y-4.6423
X8.4096Y-4.7823
X8.6192Y-3.4138
X8.6192Y-3.5123
X8.6196Y-2.6304
X8.6196Y-2.7091
X8.6196Y-2.9504
X8.6196Y-3.0291
X8.6196Y-3.8723
X8.6196Y-3.951
X8.6196Y-4.1923
X8.6196Y-4.271
X8.6396Y-4.6557
X8.6396Y-4.7541
T4
X2.8733Y-3.0174
X2.8733Y-3.1158
X2.8733Y-3.2142
X2.874Y-3.4646
X2.874Y-3.563
X2.874Y-3.6614
X2.874Y-3.9097
X2.874Y-4.0081
X2.874Y-4.1066
X2.874Y-4.205
X3.9856Y-2.6651
X4.084Y-2.6651
X4.1824Y-2.6651
X5.2824Y-4.9858
X5.3808Y-4.9858
X5.4792Y-4.9858
X5.8271Y-4.9858
X5.9255Y-4.9858
X6.0239Y-4.9858
X6.1224Y-4.9858
X6.2208Y-4.9858
X6.3192Y-4.9858
X6.5639Y-4.9858
X6.6624Y-4.9858
X6.7608Y-4.9858
X6.8592Y-4.9858
X8.9567Y-3.4154
X8.9567Y-3.5138
X8.9567Y-3.6122
X8.9592Y-4.0256
X8.9592Y-4.124
X8.9592Y-4.2224
X8.9599Y-2.902
X8.9599Y-3.0004
X8.9599Y-3.0988
T5
X2.8935Y-4.6752
X2.8935Y-4.7736
X3.3808Y-2.8658
X3.5777Y-2.8658
X4.6019Y-2.8642
X4.7987Y-2.8642
X5.05Y-2.6651
X5.0896Y-3.612
X5.0896Y-3.7104
X5.1484Y-2.6651
X6.4256Y-3.7508
X6.5192Y-2.7026
X6.5192Y-2.8994
X6.6224Y-3.7508
T6
X2.8677Y-5.0886
X2.8777Y-2.628
X4.7646Y-3.6516
X5.6496Y-4.7146
X5.9092Y-2.628
X8.9892Y-2.628
X8.9992Y-5.0786
T0
M30
